<svg id="icon" xmlns="http://www.w3.org/2000/svg" xmlns:xlink="http://www.w3.org/1999/xlink" viewBox="0 0 24 24"><defs><style>.cls-1{fill:none;}.cls-1,.cls-2{clip-rule:evenodd;}.cls-2,.cls-3,.cls-5{fill:#1f1f1f;}.cls-4{clip-path:url(#clip-path);}.cls-5{fill-rule:evenodd;}.cls-6{clip-path:url(#clip-path-2);}.cls-7{clip-path:url(#clip-path-3);}</style><clipPath id="clip-path"><polygon class="cls-1" points="-39.2 123.7 -40.07 124.63 -33.63 130.62 -49.4 130.62 -49.4 131.89 -33.63 131.89 -40.07 137.88 -39.2 138.81 -31.06 131.25 -39.2 123.7"/></clipPath><clipPath id="clip-path-2"><polygon class="cls-2" points="13.12 3.96 12.17 4.97 19.2 11.5 2.96 11.5 2.96 12.89 19.2 12.89 12.17 19.42 13.12 20.44 22 12.2 13.12 3.96"/></clipPath><clipPath id="clip-path-3"><rect class="cls-3" x="-1076" y="-1193.04" width="1440" height="4074"/></clipPath></defs><title>icon</title><polygon class="cls-5" points="13.12 3.96 12.17 4.97 19.2 11.5 2.96 11.5 2.96 12.89 19.2 12.89 12.17 19.42 13.12 20.44 22 12.2 13.12 3.96"/><g class="cls-6"><rect class="cls-3" x="-1076" y="-1193.04" width="1440" height="4074"/><g class="cls-7"><rect class="cls-3" x="-3" y="-1.04" width="30" height="26.49"/></g></g></svg>