<svg id="icon" xmlns="http://www.w3.org/2000/svg" xmlns:xlink="http://www.w3.org/1999/xlink" viewBox="0 0 128 32"><defs><style>.cls-1,.cls-2,.cls-4{fill:#1f1f1f;}.cls-1{clip-rule:evenodd;}.cls-2{fill-rule:evenodd;}.cls-3{clip-path:url(#clip-path);}.cls-5{fill:#9fa2a8;}.cls-6{fill:#484949;}.cls-7{clip-path:url(#clip-path-2);}</style><clipPath id="clip-path"><polygon class="cls-1" points="634.87 224.12 633.92 225.14 640.95 231.67 624.71 231.67 624.71 233.06 640.95 233.06 633.92 239.59 634.87 240.61 643.75 232.36 634.87 224.12"/></clipPath><clipPath id="clip-path-2"><polygon class="cls-1" points="205.12 -88.55 204.17 -87.53 211.2 -81 194.96 -81 194.96 -79.61 211.2 -79.61 204.17 -73.08 205.12 -72.06 214 -80.3 205.12 -88.55"/></clipPath></defs><title>buy_products</title><polygon class="cls-2" points="634.87 224.12 633.92 225.14 640.95 231.67 624.71 231.67 624.71 233.06 640.95 233.06 633.92 239.59 634.87 240.61 643.75 232.36 634.87 224.12"/><g class="cls-3"><rect class="cls-4" x="-454.25" y="-972.88" width="1440" height="4074"/></g><path class="cls-5" d="M16,.27A15.77,15.77,0,1,0,31.85,16,15.83,15.83,0,0,0,16,.27Zm0,30.55A14.77,14.77,0,1,1,30.85,16,14.83,14.83,0,0,1,16,30.82Z"/><polygon class="cls-5" points="16.5 7.91 15.5 7.91 15.5 15.54 7.82 15.54 7.82 16.55 15.5 16.55 15.5 24.18 16.5 24.18 16.5 16.55 24.18 16.55 24.18 15.54 16.5 15.54 16.5 7.91"/><path class="cls-5" d="M48,31.82A15.77,15.77,0,1,1,63.85,16,15.83,15.83,0,0,1,48,31.82ZM48,1.27A14.77,14.77,0,1,0,62.85,16,14.83,14.83,0,0,0,48,1.27Z"/><rect class="cls-5" x="39.82" y="15.54" width="16.35" height="1"/><path class="cls-6" d="M80,.27A15.77,15.77,0,1,0,95.85,16,15.83,15.83,0,0,0,80,.27Zm0,30.55A14.77,14.77,0,1,1,94.85,16,14.83,14.83,0,0,1,80,30.82Z"/><polygon class="cls-6" points="80.5 7.91 79.5 7.91 79.5 15.54 71.82 15.54 71.82 16.55 79.5 16.55 79.5 24.18 80.5 24.18 80.5 16.55 88.18 16.55 88.18 15.54 80.5 15.54 80.5 7.91"/><path class="cls-6" d="M112,31.82A15.77,15.77,0,1,1,127.85,16,15.83,15.83,0,0,1,112,31.82Zm0-30.55A14.77,14.77,0,1,0,126.85,16,14.83,14.83,0,0,0,112,1.27Z"/><rect class="cls-6" x="103.82" y="15.54" width="16.35" height="1"/><polygon class="cls-2" points="205.12 -88.55 204.17 -87.53 211.2 -81 194.96 -81 194.96 -79.61 211.2 -79.61 204.17 -73.08 205.12 -72.06 214 -80.3 205.12 -88.55"/><g class="cls-7"><rect class="cls-4" x="-884" y="-1285.54" width="1440" height="4074"/></g></svg>