<svg id="Layer_1" data-name="Layer 1" xmlns="http://www.w3.org/2000/svg" viewBox="0 0 243.78 59.28"><defs><style>.cls-1{fill:#040000;}</style></defs><title>lanvece_</title><g id="圖層_2" data-name="圖層 2"><path class="cls-1" d="M177.37,67.77c0-1.86,0-6.2-2.38-9.79-1.49-2.25-4.47-5-10.14-5.13h-0.59a14.19,14.19,0,0,0-11.1,4.66l-0.35.4V53.54H149V87.87h3.77V67.41a10.43,10.43,0,0,1,2.55-7.14,10.66,10.66,0,0,1,8.31-3.59h0.44a8.77,8.77,0,0,1,7.54,4.15c1.86,2.69,1.87,6.39,1.88,10v17h3.84v-20Z" transform="translate(-78.11 -30.54)"/><path class="cls-1" d="M234.39,52.83a17.52,17.52,0,0,0-7.21,1.48,15.92,15.92,0,0,0-5.4,4,18.62,18.62,0,0,0-4.57,12.47,17.72,17.72,0,0,0,17.54,17.9h0.46A16.92,16.92,0,0,0,243,86.8a18.54,18.54,0,0,0,5.5-4.36L245.85,80c-2.36,2.26-6.06,4.86-10.64,4.86A14,14,0,0,1,221.26,72V71.76H250.7c0.08-.89.08-1.77,0.08-1.78a17.76,17.76,0,0,0-5-12.58A16.07,16.07,0,0,0,234.39,52.83Zm12.69,15.23v0.2H221.25V68a12.67,12.67,0,0,1,3.94-7.89,13.14,13.14,0,0,1,9.18-3.5c7.88,0,11.68,5.4,12.6,10.45a5.54,5.54,0,0,1,.11,1h0Z" transform="translate(-78.11 -30.54)"/><path class="cls-1" d="M321.81,71.71c0.08-.89.08-1.77,0.08-1.78a17.76,17.76,0,0,0-5-12.58,16.07,16.07,0,0,0-11.41-4.52,17.52,17.52,0,0,0-7.21,1.48,15.92,15.92,0,0,0-5.4,4,18.61,18.61,0,0,0-4.57,12.47,17.72,17.72,0,0,0,17.54,17.9h0.46a16.92,16.92,0,0,0,7.83-1.88,18.54,18.54,0,0,0,5.5-4.36L317,79.91c-2.36,2.26-6.06,4.86-10.64,4.86a14,14,0,0,1-13.94-12.85V71.71h29.39Zm-29.46-3.45V68a12.67,12.67,0,0,1,3.94-7.89,13.14,13.14,0,0,1,9.18-3.5c7.88,0,11.68,5.4,12.6,10.45a5.53,5.53,0,0,1,.09,1v0.2H292.35v0Z" transform="translate(-78.11 -30.54)"/><polygon class="cls-1" points="3.86 0 0 0 0 57.33 25.21 57.33 25.21 53.71 3.86 53.71 3.86 0"/><polygon class="cls-1" points="140.89 0 120.22 48.81 120.04 49.25 119.86 48.81 99.44 0 95.47 0 120.04 59.28 144.91 0 140.89 0"/><path class="cls-1" d="M137.11,58.56v0.59l-0.36-.47a14.41,14.41,0,0,0-5.45-4.19,17.65,17.65,0,0,0-7.37-1.66,17.42,17.42,0,0,0-12.48,5.24,18.19,18.19,0,0,0-.07,25.33,17.42,17.42,0,0,0,12.56,5.24A16.12,16.12,0,0,0,131.1,87a17.39,17.39,0,0,0,5.66-4.54l0.35-.42v5.8h3.82V53.54h-3.82v5ZM123.64,84.92c-7.52,0-13.64-6.37-13.64-14.19s6.12-14.19,13.64-14.19,13.64,6.37,13.64,14.19S131.16,84.92,123.64,84.92Z" transform="translate(-78.11 -30.54)"/><path class="cls-1" d="M272.41,56.63a13.13,13.13,0,0,1,9.84,4.5l2.8-2.65a17.32,17.32,0,0,0-5.57-4.11,16.65,16.65,0,0,0-7-1.55v-0.1h0v0.1a16.9,16.9,0,0,0-12.22,5.27,18.35,18.35,0,0,0,.06,25.32,16.9,16.9,0,0,0,12.2,5.21A16.69,16.69,0,0,0,279.6,87,17.28,17.28,0,0,0,285,83l-2.8-2.65a13.13,13.13,0,0,1-9.76,4.49C265,84.84,259,78.53,259,70.78a14.38,14.38,0,0,1,3.89-10A13,13,0,0,1,272.41,56.63Z" transform="translate(-78.11 -30.54)"/></g></svg>