<svg id="圖層_1" data-name="圖層 1" xmlns="http://www.w3.org/2000/svg" viewBox="0 0 336 73.9"><title>lanvece</title><path d="M294.9,327.1a1.84,1.84,0,0,1,1.3.4,1.81,1.81,0,0,1,.5,1.4v1.7a1.71,1.71,0,0,1-1.8,1.8H255.5a1.84,1.84,0,0,1-1.3-.4,1.73,1.73,0,0,1-.5-1.3V262.5a1.9,1.9,0,0,1,.5-1.3,2,2,0,0,1,1.4-.5h1.7a1.84,1.84,0,0,1,1.3.4,1.73,1.73,0,0,1,.5,1.3v64.7h35.8Z" transform="translate(-253.7 -260.7)"/><path d="M345,330.7a1.9,1.9,0,0,1-.5,1.3,2.17,2.17,0,0,1-1.4.5h-1.5a1.65,1.65,0,0,1-1.9-1.9v-8.4a14,14,0,0,1-2.6,4.8,14.84,14.84,0,0,1-4,3.5,16.76,16.76,0,0,1-5.1,2.2,22.71,22.71,0,0,1-5.9.8,22,22,0,0,1-9.2-1.9,22.85,22.85,0,0,1-7.4-5.3,24,24,0,0,1-4.9-7.8,26.12,26.12,0,0,1,4.9-27.1,22.29,22.29,0,0,1,16.6-7.2,24.89,24.89,0,0,1,6.1.8,18.73,18.73,0,0,1,5.2,2.3,19.34,19.34,0,0,1,4,3.5,14,14,0,0,1,2.4,4.5L340,287a2.46,2.46,0,0,1,.5-1.5,2,2,0,0,1,1.4-.5h1.4a2,2,0,0,1,1.4.5,1.75,1.75,0,0,1,.6,1.5v43.7H345Zm-5.5-21.8a21.14,21.14,0,0,0-1.3-7.5,22.39,22.39,0,0,0-3.6-6.2A15.61,15.61,0,0,0,329,291a16.74,16.74,0,0,0-7.1-1.5,17.19,17.19,0,0,0-7.2,1.5,16.52,16.52,0,0,0-5.6,4.2,19.29,19.29,0,0,0-3.7,6.2,20.76,20.76,0,0,0-1.3,7.5,21.14,21.14,0,0,0,1.3,7.5,18,18,0,0,0,9.3,10.2,16.74,16.74,0,0,0,7.1,1.5,16.29,16.29,0,0,0,7-1.5,17.4,17.4,0,0,0,9.2-10.2A17.06,17.06,0,0,0,339.5,308.9Z" transform="translate(-253.7 -260.7)"/><path d="M359.2,330.6a1.52,1.52,0,0,1-1.8,1.7h-2a1.56,1.56,0,0,1-1.8-1.7V286.4a1.38,1.38,0,0,1,1.5-1.5h2.8a0.91,0.91,0,0,1,.7.3,2,2,0,0,1,.4.8l0.1,6.6a22.2,22.2,0,0,1,2.8-3.3,24.16,24.16,0,0,1,3.6-2.7,15.67,15.67,0,0,1,4.2-1.8,18.42,18.42,0,0,1,4.7-.7,19.58,19.58,0,0,1,7.7,1.5,18.9,18.9,0,0,1,6.2,4.2,20.77,20.77,0,0,1,4.1,6.3,20.08,20.08,0,0,1,1.5,7.8v26.5a1.74,1.74,0,0,1-1.9,1.9h-2a2,2,0,0,1-1.4-.5,2,2,0,0,1-.4-1.4V303.8a13.09,13.09,0,0,0-1.2-5.6,14.44,14.44,0,0,0-3.1-4.5,13.1,13.1,0,0,0-4.6-3,14.55,14.55,0,0,0-11.1,0,16.11,16.11,0,0,0-4.7,2.9,14.27,14.27,0,0,0-4.7,9.9v27.1h0.4Z" transform="translate(-253.7 -260.7)"/><path d="M393.8,261.8c3.8,9.4,7.6,18.8,11.4,28.1s7.6,18.7,11.5,28.1c0.4,0.9.8,1.9,1.2,2.9s0.8,2,1.2,2.9L444.4,262a1.4,1.4,0,0,1,1.4-1.3,10.87,10.87,0,0,1,2.6.4c0.6,0.2,1.4.3,1.4,1a2,2,0,0,1-.1.7,1.34,1.34,0,0,0-.1.5l-28,67.7c-0.3.5-.5,1.1-0.8,1.6s-0.5,1-.8,1.4h-0.2a0.68,0.68,0,0,0-.5.3,0.78,0.78,0,0,1-.7.3,0.91,0.91,0,0,1-.7-0.3c-0.2-.2-0.3-0.5-0.5-0.7-4.9-11.8-9.7-23.6-14.5-35.3s-9.6-23.5-14.5-35.3l-0.1-.3v-0.4a1.36,1.36,0,0,1,1.1-1.1,6.77,6.77,0,0,1,2.6-.4,1.5,1.5,0,0,1,1.1.4C393.4,261.1,393.6,261.4,393.8,261.8Z" transform="translate(-253.7 -260.7)"/><path d="M468.3,328.2a20.46,20.46,0,0,0,6.1-.9,17.34,17.34,0,0,0,5.4-2.8c0.4-.3.9-0.7,1.4-1.1a3.35,3.35,0,0,1,1.3-.7,1,1,0,0,1,.8.4,6.47,6.47,0,0,1,.8.9,7.46,7.46,0,0,1,.7,1.2,3.45,3.45,0,0,1,.3,1.3,7.47,7.47,0,0,1-2.5,2.5,25.5,25.5,0,0,1-6.6,3.3,25,25,0,0,1-17.2-.7,24.88,24.88,0,0,1-13.2-13.1,25.2,25.2,0,0,1,0-19.2,28.22,28.22,0,0,1,5.1-7.9,25.35,25.35,0,0,1,7.6-5.3,23.07,23.07,0,0,1,18.1-.1,21.88,21.88,0,0,1,7.3,5.1,25.59,25.59,0,0,1,5,7.7,24.73,24.73,0,0,1,1.8,9.5,2,2,0,0,1-.9,2,5.21,5.21,0,0,1-2.3.5H449.2a17.71,17.71,0,0,0,1.9,6.9,21.09,21.09,0,0,0,4.2,5.6,19,19,0,0,0,5.9,3.7A23.48,23.48,0,0,0,468.3,328.2Zm16.9-22.4a19.78,19.78,0,0,0-1.9-6.4,16.92,16.92,0,0,0-3.9-5.2,18.43,18.43,0,0,0-5.5-3.5,16.9,16.9,0,0,0-13,0,16.65,16.65,0,0,0-5.5,3.5,19.85,19.85,0,0,0-6.3,11.7h36.1v-0.1Z" transform="translate(-253.7 -260.7)"/><path d="M534.1,322.1a2.06,2.06,0,0,1,1.4-.7,1.27,1.27,0,0,1,.6.1,2.65,2.65,0,0,1,.6.5l1.3,1.6a1.63,1.63,0,0,1,.4.9,1.33,1.33,0,0,1-.3.8c-0.2.3-.6,0.6-1,1.1a28.08,28.08,0,0,1-7.5,5,22.79,22.79,0,0,1-9.1,1.9,23,23,0,0,1-9.5-1.9,23.71,23.71,0,0,1-7.5-5.3,25.38,25.38,0,0,1-6.8-17.6,25.61,25.61,0,0,1,1.8-9.6,24.12,24.12,0,0,1,5-7.9,23.71,23.71,0,0,1,7.5-5.3,23,23,0,0,1,9.5-1.9,22.81,22.81,0,0,1,8.7,1.6,26.16,26.16,0,0,1,7.3,4.5,9,9,0,0,1,1,.9,1.82,1.82,0,0,1,.5,1.1,1.67,1.67,0,0,1-.4,1.1l-1,1.3a6.53,6.53,0,0,1-.7.8,0.91,0.91,0,0,1-.7.3,2.06,2.06,0,0,1-1.4-.7,18.14,18.14,0,0,0-5.9-4,17.19,17.19,0,0,0-7.2-1.5,18.13,18.13,0,0,0-7.4,1.5,17.28,17.28,0,0,0-5.8,4.2,19.53,19.53,0,0,0-3.8,6.2,20.82,20.82,0,0,0-1.4,7.5,20.42,20.42,0,0,0,1.4,7.5,20.7,20.7,0,0,0,3.8,6.2,17.28,17.28,0,0,0,5.8,4.2,17.79,17.79,0,0,0,7.4,1.5,16.52,16.52,0,0,0,3.8-.5,17.35,17.35,0,0,0,3.6-1.3,17.74,17.74,0,0,0,3.3-1.9A26.08,26.08,0,0,0,534.1,322.1Z" transform="translate(-253.7 -260.7)"/><path d="M567.5,328.2a20.46,20.46,0,0,0,6.1-.9,17.34,17.34,0,0,0,5.4-2.8c0.4-.3.9-0.7,1.4-1.1a3.35,3.35,0,0,1,1.3-.7,1,1,0,0,1,.8.4,6.47,6.47,0,0,1,.8.9,7.46,7.46,0,0,1,.7,1.2,3.45,3.45,0,0,1,.3,1.3,7.47,7.47,0,0,1-2.5,2.5,25.5,25.5,0,0,1-6.6,3.3,25,25,0,0,1-17.2-.7,24.88,24.88,0,0,1-13.2-13.1,25.2,25.2,0,0,1,0-19.2,28.22,28.22,0,0,1,5.1-7.9,25.35,25.35,0,0,1,7.6-5.3,23.07,23.07,0,0,1,18.1-.1,21.88,21.88,0,0,1,7.3,5.1,25.59,25.59,0,0,1,5,7.7,24.73,24.73,0,0,1,1.8,9.5,2,2,0,0,1-.9,2,5.21,5.21,0,0,1-2.3.5H548.4a17.71,17.71,0,0,0,1.9,6.9,21.09,21.09,0,0,0,4.2,5.6,19,19,0,0,0,5.9,3.7A23.48,23.48,0,0,0,567.5,328.2Zm16.9-22.4a19.78,19.78,0,0,0-1.9-6.4,16.92,16.92,0,0,0-3.9-5.2,18.43,18.43,0,0,0-5.5-3.5,16.9,16.9,0,0,0-13,0,16.65,16.65,0,0,0-5.5,3.5,19.85,19.85,0,0,0-6.3,11.7h36.1v-0.1Z" transform="translate(-253.7 -260.7)"/></svg>