<svg id="icon" xmlns="http://www.w3.org/2000/svg" xmlns:xlink="http://www.w3.org/1999/xlink" viewBox="0 0 200.13 40"><defs><style>.cls-1,.cls-2,.cls-4{fill:#1f1f1f;}.cls-1{clip-rule:evenodd;}.cls-2{fill-rule:evenodd;}.cls-3{clip-path:url(#clip-path);}.cls-5{clip-path:url(#clip-path-2);}</style><clipPath id="clip-path"><polygon class="cls-1" points="634.87 275.81 633.92 276.83 640.95 283.35 624.71 283.35 624.71 284.75 640.95 284.75 633.92 291.28 634.87 292.29 643.75 284.05 634.87 275.81"/></clipPath><clipPath id="clip-path-2"><polygon class="cls-1" points="205.12 -36.86 204.17 -35.84 211.2 -29.31 194.96 -29.31 194.96 -27.92 211.2 -27.92 204.17 -21.39 205.12 -20.37 214 -28.61 205.12 -36.86"/></clipPath></defs><title>menu_icons</title><polygon class="cls-2" points="634.87 275.81 633.92 276.83 640.95 283.35 624.71 283.35 624.71 284.75 640.95 284.75 633.92 291.28 634.87 292.29 643.75 284.05 634.87 275.81"/><g class="cls-3"><rect class="cls-4" x="-454.25" y="-921.19" width="1440" height="4074"/></g><path class="cls-4" d="M180.12,22.45a6.37,6.37,0,1,1,6.37-6.37A6.37,6.37,0,0,1,180.12,22.45Zm0-11.73a5.37,5.37,0,1,0,5.37,5.37A5.37,5.37,0,0,0,180.12,10.72Z"/><path class="cls-4" d="M189.65,31.1a.5.5,0,0,1-.5-.5c0-2.81-2-4.83-5.33-5.27a55.39,55.39,0,0,0-7.38,0c-3.29.44-5.33,2.46-5.33,5.27a.5.5,0,1,1-1,0c0-3.35,2.38-5.75,6.2-6.26a55.18,55.18,0,0,1,7.65,0c3.83.51,6.2,2.91,6.2,6.26A.5.5,0,0,1,189.65,31.1Z"/><path class="cls-4" d="M110.28,11.61h-4.41V10.27a.5.5,0,0,0-1,0v1.33H95.59V10.27a.5.5,0,0,0-1,0v1.33H90a.8.8,0,0,0-.8.8v18.4a.8.8,0,0,0,.8.8h20.3a.8.8,0,0,0,.8-.8V12.41A.8.8,0,0,0,110.28,11.61Zm-15.69,1v1.33a.5.5,0,0,0,1,0V12.61h9.28v1.33a.5.5,0,0,0,1,0V12.61h4.21v3.74H90.17V12.61Zm-4.42,18V17.35h19.9V30.61Z"/><path class="cls-4" d="M150.28,30.2H130a.8.8,0,0,1-.8-.8v-16a.92.92,0,0,1,.66-.86l9.87-2.72a1.79,1.79,0,0,1,.84,0l9.87,2.72a.92.92,0,0,1,.66.86v16A.8.8,0,0,1,150.28,30.2Zm-20.1-1h19.9V13.49l-9.8-2.7a.84.84,0,0,0-.31,0l-9.8,2.7Z"/><path class="cls-4" d="M147.12,27.37a.5.5,0,0,1-.5-.5V20.5h-6.44v6.37a.5.5,0,1,1-1,0V20a.5.5,0,0,1,.5-.5h7.44a.5.5,0,0,1,.5.5v6.87A.5.5,0,0,1,147.12,27.37Z"/><path class="cls-4" d="M63.14,29.52H48.19a.5.5,0,0,1-.5-.5V10.74a.5.5,0,0,1,.5-.5H63.14a.5.5,0,0,1,.5.5v5.39a.5.5,0,0,1-.2.4.49.49,0,0,1-.43.09,3.31,3.31,0,0,0-.87-.13,3.4,3.4,0,1,0,0,6.8,3.31,3.31,0,0,0,.87-.13.5.5,0,0,1,.63.48V29A.5.5,0,0,1,63.14,29.52Zm-14.45-1H62.64V24.25a3.89,3.89,0,0,1-.5,0,4.41,4.41,0,0,1-4.4-4.4,4.36,4.36,0,0,1,4.91-4.37V11.24H48.69Z"/><path class="cls-4" d="M69.23,23.6a3.71,3.71,0,1,1,3.71-3.71A3.72,3.72,0,0,1,69.23,23.6Zm0-6.43a2.71,2.71,0,1,0,2.71,2.71A2.72,2.72,0,0,0,69.23,17.17Z"/><path class="cls-4" d="M25.34,16.69H25V11.36a1,1,0,0,0-1-1H23A2,2,0,0,1,23,10a4.48,4.48,0,0,1,.29-1.44,4.94,4.94,0,0,0,.27-2.92A3.52,3.52,0,0,0,20,3a3.54,3.54,0,0,0-3.53,2.62,4.93,4.93,0,0,0,.26,2.93A4.49,4.49,0,0,1,17,10a2,2,0,0,1,0,.36H16a1,1,0,0,0-1,1v5.33h-.34a1.5,1.5,0,0,0-1.5,1.5V30.13a1.5,1.5,0,0,0,1.5,1.5H25.34a1.5,1.5,0,0,0,1.5-1.5V18.19A1.5,1.5,0,0,0,25.34,16.69ZM17.67,8.16a4,4,0,0,1-.22-2.3,2.67,2.67,0,0,1,5.1,0,3.93,3.93,0,0,1-.22,2.3A5.42,5.42,0,0,0,22,10a2.46,2.46,0,0,0,0,.37H18A2.41,2.41,0,0,0,18,10,5.45,5.45,0,0,0,17.67,8.16ZM16,11.36h8v5.33H16Zm9.84,18.77a.5.5,0,0,1-.5.5H14.66a.5.5,0,0,1-.5-.5V18.19a.5.5,0,0,1,.5-.5H25.34a.5.5,0,0,1,.5.5Z"/><polygon class="cls-2" points="205.12 -36.86 204.17 -35.84 211.2 -29.31 194.96 -29.31 194.96 -27.92 211.2 -27.92 204.17 -21.39 205.12 -20.37 214 -28.61 205.12 -36.86"/><g class="cls-5"><rect class="cls-4" x="-884" y="-1233.86" width="1440" height="4074"/></g></svg>