<svg id="icon" xmlns="http://www.w3.org/2000/svg" xmlns:xlink="http://www.w3.org/1999/xlink" viewBox="0 0 216 24"><defs><style>.cls-1,.cls-2,.cls-3{fill:#1f1f1f;}.cls-1{clip-rule:evenodd;}.cls-3{fill-rule:evenodd;}.cls-4{clip-path:url(#clip-path);}.cls-5{fill:#f8f8f8;}.cls-6{clip-path:url(#clip-path-2);}.cls-7{clip-path:url(#clip-path-3);}</style><clipPath id="clip-path"><polygon class="cls-1" points="634.87 316.62 633.92 317.64 640.95 324.17 624.71 324.17 624.71 325.56 640.95 325.56 633.92 332.09 634.87 333.11 643.75 324.86 634.87 316.62"/></clipPath><clipPath id="clip-path-2"><polygon class="cls-1" points="205.12 3.96 204.17 4.97 211.2 11.5 194.96 11.5 194.96 12.89 211.2 12.89 204.17 19.42 205.12 20.44 214 12.2 205.12 3.96"/></clipPath><clipPath id="clip-path-3"><rect class="cls-2" x="-884" y="-1193.04" width="1440" height="4074"/></clipPath></defs><title>sidemenu _icons</title><polygon class="cls-3" points="634.87 316.62 633.92 317.64 640.95 324.17 624.71 324.17 624.71 325.56 640.95 325.56 633.92 332.09 634.87 333.11 643.75 324.86 634.87 316.62"/><g class="cls-4"><rect class="cls-2" x="-454.25" y="-880.38" width="1440" height="4074"/></g><path class="cls-2" d="M116.8,19.93l-4.19-4.35a7.71,7.71,0,1,0-1.17,1.09L115.65,21a.8.8,0,0,0,1.15-1.11Zm-16.43-9.37A6.46,6.46,0,1,1,106.83,17,6.47,6.47,0,0,1,100.37,10.57Z"/><path class="cls-2" d="M138.74,5.13H125.26a1.07,1.07,0,0,0-1.07,1.07V20a1.07,1.07,0,0,0,1.07,1.07h13.48A1.07,1.07,0,0,0,139.81,20V6.21A1.07,1.07,0,0,0,138.74,5.13Zm0,14.88-13.42,0,0-13.81,13.45,0Z"/><path class="cls-2" d="M127.91,3.74a.55.55,0,0,0,.71-.31A3.36,3.36,0,0,1,132,1.13a3.29,3.29,0,0,1,3.37,2.26.55.55,0,0,0,.53.39l.16,0a.55.55,0,0,0,.36-.69A4.34,4.34,0,0,0,132,0a4.48,4.48,0,0,0-4.4,3A.55.55,0,0,0,127.91,3.74Z"/><path class="cls-5" d="M164.8,19.93l-4.19-4.35a7.71,7.71,0,1,0-1.17,1.09L163.65,21a.8.8,0,0,0,1.15-1.11Zm-16.43-9.37A6.46,6.46,0,1,1,154.83,17,6.47,6.47,0,0,1,148.37,10.57Z"/><path class="cls-5" d="M186.74,5.13H173.26a1.07,1.07,0,0,0-1.07,1.07V20a1.07,1.07,0,0,0,1.07,1.07h13.48A1.07,1.07,0,0,0,187.81,20V6.21A1.07,1.07,0,0,0,186.74,5.13Zm0,14.88-13.42,0,0-13.81,13.45,0Z"/><path class="cls-5" d="M175.91,3.74a.55.55,0,0,0,.71-.31A3.36,3.36,0,0,1,180,1.13a3.29,3.29,0,0,1,3.37,2.26.55.55,0,0,0,.53.39l.16,0a.55.55,0,0,0,.36-.69A4.34,4.34,0,0,0,180,0a4.48,4.48,0,0,0-4.4,3A.55.55,0,0,0,175.91,3.74Z"/><path class="cls-2" d="M20.95,19.8l-4.1-4.25a7.9,7.9,0,1,0-1.47,1.36l4.12,4.28a1,1,0,0,0,1.44-1.39ZM4.52,10.57a6.31,6.31,0,1,1,6.31,6.31A6.32,6.32,0,0,1,4.52,10.57Z"/><path class="cls-2" d="M42.74,5.19H29.26a1.17,1.17,0,0,0-1.17,1.17V20.2a1.17,1.17,0,0,0,1.17,1.17H42.74a1.17,1.17,0,0,0,1.17-1.17V6.37A1.17,1.17,0,0,0,42.74,5.19Zm-.13,14.88H29.39V6.49H42.61Z"/><path class="cls-2" d="M31.89,3.95a.6.6,0,0,0,.78-.34A3.32,3.32,0,0,1,36,1.34a3.24,3.24,0,0,1,3.32,2.23.6.6,0,0,0,1.15-.36A4.39,4.39,0,0,0,36,.14a4.53,4.53,0,0,0-4.45,3A.6.6,0,0,0,31.89,3.95Z"/><path class="cls-5" d="M68.95,19.8l-4.1-4.25a7.9,7.9,0,1,0-1.47,1.36l4.12,4.28a1,1,0,1,0,1.44-1.39ZM52.52,10.57a6.31,6.31,0,1,1,6.31,6.31A6.32,6.32,0,0,1,52.52,10.57Z"/><path class="cls-5" d="M90.74,5.19H77.26a1.17,1.17,0,0,0-1.17,1.17V20.2a1.17,1.17,0,0,0,1.17,1.17H90.74a1.17,1.17,0,0,0,1.17-1.17V6.37A1.17,1.17,0,0,0,90.74,5.19Zm-.13,14.88H77.39V6.49H90.61Z"/><path class="cls-5" d="M79.89,3.95a.6.6,0,0,0,.78-.34A3.32,3.32,0,0,1,84,1.34a3.24,3.24,0,0,1,3.32,2.23.6.6,0,0,0,1.15-.36A4.39,4.39,0,0,0,84,.14a4.53,4.53,0,0,0-4.45,3A.6.6,0,0,0,79.89,3.95Z"/><polygon class="cls-3" points="205.12 3.96 204.17 4.97 211.2 11.5 194.96 11.5 194.96 12.89 211.2 12.89 204.17 19.42 205.12 20.44 214 12.2 205.12 3.96"/><g class="cls-6"><rect class="cls-2" x="-884" y="-1193.04" width="1440" height="4074"/><g class="cls-7"><rect class="cls-2" x="189" y="-1.04" width="30" height="26.49"/></g></g></svg>